# Blender v2.80 (sub 75) OBJ File: 'pistol.blend'
# www.blender.org
v 0.040919 0.279505 -0.026916
v 0.039199 0.179692 -0.025197
v 0.034815 0.286062 0.324123
v 0.009448 0.217454 0.336517
v -0.040907 0.279505 -0.026916
v -0.039188 0.179692 -0.025197
v -0.034804 0.286062 0.324123
v -0.009437 0.217454 0.336517
v -0.039188 0.179692 0.048413
v 0.036535 0.279423 0.087233
v -0.036524 0.279423 0.087233
v 0.039199 0.179692 0.048413
v 0.047210 0.179692 -0.033207
v -0.047198 0.179692 -0.033207
v 0.047210 0.179692 0.056423
v -0.047198 0.179692 0.056423
v 0.039199 -0.001237 -0.036479
v -0.039188 -0.001237 -0.036479
v 0.039199 -0.001237 0.037130
v -0.039188 -0.001237 0.037130
v 0.009448 0.236339 0.336517
v -0.009437 0.236339 0.336517
v 0.040919 0.277331 0.050132
v -0.040907 0.277331 0.050132
v -0.047198 0.274100 0.056423
v -0.047198 0.274100 -0.031924
v 0.047210 0.274100 -0.031924
v 0.047210 0.274100 0.056423
v 0.000006 0.179692 -0.033207
v 0.000006 0.236339 0.336517
v 0.000006 0.217454 0.336517
v 0.000006 0.274100 -0.031924
v 0.000006 0.179692 0.056423
v 0.000006 0.179692 -0.025197
v 0.000006 0.179692 0.048413
v 0.000006 -0.001237 -0.036479
v 0.000006 -0.001237 0.037130
v -0.001714 0.286062 0.324123
v 0.000006 0.279423 0.087233
v 0.000006 0.282709 -0.026916
v 0.000006 0.277331 0.050132
v -0.047198 0.179692 0.321953
v 0.047210 0.274100 0.321953
v -0.047198 0.274100 0.321953
v 0.047210 0.179692 0.321953
v 0.034815 0.285993 0.314698
v -0.034804 0.285993 0.314698
v 0.000006 0.179692 0.321953
v -0.001714 0.285993 0.314698
v 0.001726 0.286062 0.324123
v -0.036524 0.281723 0.325843
v 0.001726 0.285993 0.314698
v -0.036524 0.281628 0.312978
v 0.036535 0.281628 0.312978
v 0.036535 0.281723 0.325843
v 0.000006 0.281723 0.325843
v 0.000006 0.281628 0.312978
v -0.047198 0.179692 0.336517
v -0.047198 0.274100 0.336517
v 0.047210 0.274100 0.336517
v 0.047210 0.179692 0.336517
v 0.000006 0.274100 0.336517
v 0.000006 0.179692 0.336517
v -0.009437 0.217454 0.344153
v -0.009437 0.236339 0.344153
v 0.009448 0.236339 0.344153
v 0.009448 0.217454 0.344153
v 0.000006 0.236339 0.344153
v 0.000006 0.217454 0.344153
v -0.047198 0.274100 -0.021690
v 0.047210 0.179692 -0.021690
v -0.047198 0.179692 -0.021690
v 0.047210 0.274100 -0.021690
v 0.039199 0.179692 -0.015738
v -0.039188 0.179692 -0.015738
v 0.039199 -0.001237 -0.027021
v -0.039188 -0.001237 -0.027021
v -0.040907 0.279226 -0.017016
v 0.040919 0.279226 -0.017016
v 0.000006 0.282430 -0.017016
v 0.006515 0.179692 0.336517
v 0.006515 0.274100 -0.031924
v 0.005043 0.279423 0.087233
v 0.005648 0.279505 -0.026916
v 0.005648 0.277331 0.050132
v 0.006515 0.179692 -0.033207
v 0.006515 0.274100 0.336517
v 0.006515 0.179692 0.056423
v 0.005411 0.179692 -0.025197
v 0.005411 0.179692 0.048413
v 0.005411 -0.001237 -0.036479
v 0.005411 -0.001237 0.037130
v 0.005043 0.281723 0.325843
v 0.005043 0.281628 0.312978
v 0.006515 0.179692 0.321953
v 0.006289 0.286062 0.324123
v 0.006289 0.285993 0.314698
v 0.001308 0.217454 0.336517
v 0.001308 0.236339 0.336517
v 0.001308 0.217454 0.344153
v 0.001308 0.236339 0.344153
v 0.005648 0.279226 -0.017016
v -0.006471 0.179692 -0.033207
v -0.006471 0.274100 0.336517
v -0.006471 0.179692 0.056423
v -0.005372 0.179692 -0.025197
v -0.005372 0.179692 0.048413
v -0.005372 -0.001237 -0.036479
v -0.005372 -0.001237 0.037130
v -0.005006 0.281723 0.325843
v -0.006471 0.179692 0.336517
v -0.006471 0.274100 -0.031924
v -0.005006 0.279423 0.087233
v -0.005608 0.279505 -0.026916
v -0.005608 0.277331 0.050132
v -0.006471 0.179692 0.321953
v -0.005006 0.281628 0.312978
v -0.006254 0.286062 0.324123
v -0.006254 0.285993 0.314698
v -0.001290 0.236339 0.336517
v -0.001290 0.217454 0.336517
v -0.001290 0.236339 0.344153
v -0.001290 0.217454 0.344153
v -0.005608 0.279226 -0.017016
v 0.047210 0.186800 -0.033207
v -0.047198 0.186800 0.336517
v 0.047210 0.186800 0.336517
v -0.047198 0.186800 -0.033207
v 0.047210 0.186800 0.056423
v -0.047198 0.186800 0.056423
v 0.000006 0.186800 -0.033207
v -0.047198 0.186800 0.321953
v 0.047210 0.186800 0.321953
v -0.009437 0.218875 0.336517
v 0.009448 0.218875 0.336517
v -0.009437 0.218875 0.344153
v 0.009448 0.218875 0.344153
v 0.047210 0.186800 -0.021690
v -0.047198 0.186800 -0.021690
v 0.001308 0.218875 0.344153
v 0.006515 0.186800 -0.033207
v -0.001290 0.218875 0.344153
v -0.006471 0.186800 -0.033207
v -0.047198 0.269327 0.336517
v 0.047210 0.269327 0.336517
v -0.009437 0.235384 0.336517
v -0.009437 0.235384 0.344153
v 0.001308 0.235384 0.344153
v 0.047210 0.269327 -0.033207
v -0.047198 0.269327 -0.033207
v 0.047210 0.269327 0.056423
v -0.047198 0.269327 0.056423
v 0.000006 0.269327 -0.033207
v -0.047198 0.269327 0.321953
v 0.047210 0.269327 0.321953
v 0.009448 0.235384 0.336517
v 0.009448 0.235384 0.344153
v 0.047210 0.269327 -0.021690
v -0.047198 0.269327 -0.021690
v 0.006515 0.269327 -0.033207
v -0.001290 0.235384 0.344153
v -0.006471 0.269327 -0.033207
vt 0.592179 0.237349
vt 0.516577 0.242980
vt 0.516577 0.237349
vt 0.612362 0.743534
vt 0.625000 0.750000
vt 0.612362 0.750000
vt 0.625000 0.991823
vt 0.517238 1.000000
vt 0.517238 0.991823
vt 0.375000 0.741823
vt 0.362362 0.750000
vt 0.362362 0.741823
vt 0.875000 0.642238
vt 0.862362 0.750000
vt 0.862362 0.642238
vt 0.375000 0.506466
vt 0.362362 0.550321
vt 0.362362 0.506466
vt 0.396212 0.754497
vt 0.396212 0.759808
vt 0.396212 0.759808
vt 0.625000 0.508177
vt 0.612362 0.699679
vt 0.612362 0.508177
vt 0.608341 0.009090
vt 0.514865 0.046789
vt 0.514865 0.009090
vt 0.482850 0.750000
vt 0.485760 0.754497
vt 0.603788 0.754497
vt 0.625000 0.756466
vt 0.603788 0.759808
vt 0.396212 0.795823
vt 0.375000 0.756466
vt 0.603788 0.795823
vt 0.517238 0.800320
vt 0.514313 0.795823
vt 0.514313 0.754497
vt 0.514313 0.754497
vt 0.485760 0.795823
vt 0.485760 0.795823
vt 0.603788 0.795823
vt 0.603788 0.759808
vt 0.596734 0.244007
vt 0.517150 0.250000
vt 0.513272 0.244007
vt 0.403266 0.244007
vt 0.375000 0.241823
vt 0.403266 0.236321
vt 0.596734 0.056313
vt 0.625000 0.241823
vt 0.596734 0.236321
vt 0.375000 0.050321
vt 0.391659 0.046789
vt 0.403266 0.056313
vt 0.608341 0.003532
vt 0.625000 0.006466
vt 0.391659 0.003532
vt 0.482762 0.000000
vt 0.485059 0.003532
vt 0.375000 0.006466
vt 0.391659 0.009090
vt 0.485059 0.046789
vt 0.608341 0.046789
vt 0.625000 0.050321
vt 0.513272 0.056313
vt 0.500000 0.046789
vt 0.514865 0.003532
vt 0.500000 0.000000
vt 0.517150 0.000000
vt 0.486660 0.244007
vt 0.500000 0.250000
vt 0.482762 0.250000
vt 0.500000 0.795823
vt 0.514313 0.795823
vt 0.500000 0.754497
vt 0.485760 0.754497
vt 0.500000 0.800321
vt 0.482850 0.800321
vt 0.500000 0.750000
vt 0.517238 0.750000
vt 0.485059 0.009090
vt 0.875000 0.607850
vt 0.862362 0.625000
vt 0.862362 0.607850
vt 0.500000 0.991823
vt 0.482850 1.000000
vt 0.482850 0.991823
vt 0.495445 0.237349
vt 0.483362 0.242980
vt 0.483362 0.237349
vt 0.500000 0.056313
vt 0.486660 0.236321
vt 0.486660 0.056313
vt 0.643822 0.625000
vt 0.625000 0.642238
vt 0.625000 0.625000
vt 0.625000 0.250000
vt 0.625000 0.500000
vt 0.612362 0.500000
vt 0.375000 0.550321
vt 0.643822 0.500000
vt 0.625000 0.607850
vt 0.625000 0.500000
vt 0.513272 0.236321
vt 0.592179 0.242980
vt 0.504555 0.237349
vt 0.500000 0.244007
vt 0.500000 0.236321
vt 0.407821 0.237349
vt 0.495445 0.242980
vt 0.525004 0.375000
vt 0.525004 0.371552
vt 0.525004 0.371552
vt 0.525004 0.400004
vt 0.522476 0.400004
vt 0.474996 0.349996
vt 0.393822 0.250000
vt 0.478761 0.349996
vt 0.525004 0.378431
vt 0.625000 0.375000
vt 0.625000 0.392150
vt 0.474996 0.371552
vt 0.375000 0.375000
vt 0.375000 0.357762
vt 0.525004 0.349996
vt 0.625000 0.357762
vt 0.474996 0.400004
vt 0.375000 0.392150
vt 0.474996 0.378431
vt 0.474996 0.371552
vt 0.478761 0.349996
vt 0.478761 0.371552
vt 0.525004 0.378431
vt 0.478761 0.400004
vt 0.478761 0.400004
vt 0.474996 0.375000
vt 0.474996 0.378431
vt 0.522476 0.349996
vt 0.522476 0.349996
vt 0.500000 0.009090
vt 0.375000 0.000000
vt 0.603788 0.754497
vt 0.375000 0.750000
vt 0.625000 0.800321
vt 0.396212 0.795823
vt 0.375000 0.500000
vt 0.362362 0.500000
vt 0.625000 0.699679
vt 0.474996 0.375000
vt 0.478761 0.378431
vt 0.375000 0.250000
vt 0.525004 0.349996
vt 0.407821 0.242980
vt 0.522476 0.400004
vt 0.522476 0.378431
vt 0.625000 0.750000
vt 0.375000 0.250000
vt 0.500000 0.003532
vt 0.500000 0.754497
vt 0.875000 0.625000
vt 0.500000 1.000000
vt 0.474996 0.400004
vt 0.525004 0.375000
vt 0.504555 0.242980
vt 0.522476 0.371552
vt 0.375000 1.000000
vt 0.375000 0.991823
vt 0.875000 0.500000
vt 0.862362 0.500000
vt 0.375000 0.800321
vt 0.396212 0.754497
vt 0.625000 0.000000
vt 0.500000 0.795823
vt 0.393822 0.699679
vt 0.375000 0.743534
vt 0.375000 0.699679
vt 0.143822 0.500000
vt 0.125000 0.506466
vt 0.125000 0.500000
vt 0.474996 0.349996
vt 0.612362 0.250000
vt 0.393822 0.500000
vt 0.375000 0.500000
vt 0.143822 0.550321
vt 0.125000 0.741823
vt 0.125000 0.550321
vt 0.375000 0.508177
vt 0.643822 0.607850
vt 0.393822 0.508177
vt 0.143822 0.506466
vt 0.643822 0.642238
vt 0.143822 0.741823
vt 0.125000 0.750000
vt 0.393822 0.743534
vt 0.625000 0.250000
vt 0.525004 0.400004
vt 0.643822 0.750000
vt 0.143822 0.750000
vt 0.393822 0.750000
vt 0.625000 0.743534
vt 0.625000 1.000000
vt 0.375000 0.750000
vt 0.875000 0.750000
vn 0.0000 1.0000 -0.0073
vn -1.0000 0.0000 0.0000
vn 0.0000 -1.0000 0.0000
vn 1.0000 0.0000 0.0000
vn 0.0000 0.2597 -0.9657
vn 0.0000 0.9996 0.0282
vn 0.0000 0.0622 -0.9981
vn 0.0000 -0.0622 0.9981
vn 0.0000 0.8138 0.5812
vn 0.5797 0.8148 -0.0060
vn -0.5808 0.8140 -0.0080
vn 0.4541 0.8909 0.0034
vn -0.6411 0.7671 0.0217
vn 0.0000 0.6796 -0.7336
vn 0.6411 0.7671 0.0217
vn 0.0000 0.9984 -0.0563
vn -0.4541 0.8909 0.0034
vn 0.0000 1.0000 -0.0098
vn 0.0000 0.0000 -1.0000
vn -0.5812 0.8138 0.0000
vn 0.4463 0.8949 0.0000
vn 0.0000 0.3685 0.9296
vn 0.9300 0.3676 -0.0027
vn -0.9300 0.3676 -0.0027
vn 0.0000 0.3667 -0.9304
vn 0.0000 1.0000 0.0000
vn 0.0000 0.0000 1.0000
vn 0.4937 0.8693 0.0245
vn 0.6517 0.7585 0.0000
vn -0.4568 0.8896 0.0000
vn 0.2746 0.4835 -0.8312
vn -0.4956 0.8682 0.0245
vn -0.4947 0.8666 0.0658
vn 0.5812 0.8138 0.0000
vn -0.4463 0.8949 0.0000
vn -0.6517 0.7585 0.0000
vn 0.4568 0.8896 0.0000
vn -0.2758 0.4833 -0.8309
vn 0.4928 0.8677 0.0659
vn -0.5797 0.8148 -0.0060
vn 0.5808 0.8140 -0.0080
vn 0.0000 0.3666 -0.9304
s off
f 47/1/1 118/2/1 119/3/1
f 159/4/2 26/5/2 150/6/2
f 45/7/3 81/8/3 95/9/3
f 43/10/4 145/11/4 155/12/4
f 82/13/5 149/14/5 160/15/5
f 73/16/4 151/17/4 158/18/4
f 6/19/2 77/20/2 75/21/2
f 44/22/2 152/23/2 154/24/2
f 78/25/6 115/26/6 124/27/6
f 6/19/3 103/28/3 106/29/3
f 2/30/3 71/31/3 74/32/3
f 9/33/3 72/34/3 75/21/3
f 12/35/3 88/36/3 90/37/3
f 2/30/7 91/38/7 89/39/7
f 9/33/8 109/40/8 107/41/8
f 74/32/4 19/42/4 76/43/4
f 51/44/9 104/45/9 110/46/9
f 55/47/10 43/48/10 54/49/10
f 11/50/11 44/51/11 53/52/11
f 28/53/12 23/54/12 10/55/12
f 5/56/13 70/57/13 78/25/13
f 1/58/14 82/59/14 84/60/14
f 23/54/15 73/61/15 79/62/15
f 85/63/16 10/55/16 23/54/16
f 24/64/17 25/65/17 11/50/17
f 113/66/16 41/67/16 115/26/16
f 114/68/14 32/69/14 112/70/14
f 93/71/9 62/72/9 87/73/9
f 35/74/8 92/75/8 90/37/8
f 34/76/7 108/77/7 106/29/7
f 107/41/3 33/78/3 105/79/3
f 89/39/3 29/80/3 86/81/3
f 102/82/6 41/67/6 85/63/6
f 112/83/5 153/84/5 162/85/5
f 48/86/3 111/87/3 116/88/3
f 52/89/1 96/90/1 97/91/1
f 39/92/18 94/93/18 83/94/18
f 131/95/19 86/96/19 29/97/19
f 51/44/20 44/51/20 59/98/20
f 10/55/21 43/48/21 28/53/21
f 59/99/2 154/24/2 144/100/2
f 28/101/4 155/12/4 151/17/4
f 128/102/19 103/103/19 14/104/19
f 11/50/18 117/105/18 113/66/18
f 7/106/22 110/46/22 118/2/22
f 49/107/23 56/108/23 57/109/23
f 47/1/24 51/44/24 7/106/24
f 49/107/25 117/105/25 119/3/25
f 46/110/23 55/47/23 54/49/23
f 50/111/22 93/71/22 96/90/22
f 52/89/24 56/108/24 50/111/24
f 46/110/25 94/93/25 97/91/25
f 30/112/26 101/113/26 99/114/26
f 22/115/27 144/100/27 146/116/27
f 4/117/27 127/118/27 135/119/27
f 120/120/27 62/121/27 104/122/27
f 98/123/27 63/124/27 81/125/27
f 21/126/27 87/127/27 99/114/27
f 8/128/27 111/129/27 121/130/27
f 100/131/27 137/132/27 140/133/27
f 22/115/26 122/134/26 120/120/26
f 8/128/2 136/135/2 134/136/2
f 31/137/3 123/138/3 121/130/3
f 4/117/3 100/131/3 98/123/3
f 21/126/4 157/139/4 156/140/4
f 84/60/28 80/141/28 102/82/28
f 1/58/29 73/61/29 27/142/29
f 24/64/30 70/57/30 25/65/30
f 2/30/4 76/43/4 17/143/4
f 6/19/3 72/34/3 14/144/3
f 12/35/3 71/31/3 15/145/3
f 5/56/6 124/27/6 114/68/6
f 75/21/2 20/146/2 9/33/2
f 27/147/4 158/18/4 149/148/4
f 25/149/2 159/4/2 152/23/2
f 84/60/6 79/62/6 1/58/6
f 98/123/3 69/150/3 31/137/3
f 136/135/27 123/138/27 142/151/27
f 99/114/27 62/121/27 30/112/27
f 4/117/27 81/125/27 61/152/27
f 99/114/26 66/153/26 21/126/26
f 52/89/25 94/93/25 57/109/25
f 3/154/22 93/71/22 55/47/22
f 147/155/27 142/151/27 161/156/27
f 83/94/18 54/49/18 10/55/18
f 97/91/1 3/154/1 46/110/1
f 102/82/6 23/54/6 79/62/6
f 2/30/3 86/81/3 13/157/3
f 90/37/8 19/42/8 12/35/8
f 55/47/9 87/73/9 60/158/9
f 41/67/16 83/94/16 85/63/16
f 84/60/31 32/69/31 40/159/31
f 89/39/7 36/160/7 34/76/7
f 90/37/3 33/78/3 35/74/3
f 32/161/5 160/15/5 153/84/5
f 95/9/3 63/162/3 48/86/3
f 142/151/27 123/138/27 69/150/27
f 114/68/32 80/141/32 40/159/32
f 77/20/3 108/77/3 109/40/3
f 121/130/3 64/163/3 8/128/3
f 120/120/26 68/164/26 30/112/26
f 121/130/27 63/124/27 31/137/27
f 22/115/27 104/122/27 59/99/27
f 47/1/25 117/105/25 53/52/25
f 38/165/22 110/46/22 56/108/22
f 113/66/18 57/109/18 39/92/18
f 161/156/27 140/133/27 148/166/27
f 116/88/3 58/167/3 42/168/3
f 26/169/5 162/85/5 150/170/5
f 9/33/3 105/79/3 16/171/3
f 106/29/7 18/172/7 6/19/7
f 5/56/14 112/70/14 26/173/14
f 11/50/16 115/26/16 24/64/16
f 110/46/9 62/72/9 56/108/9
f 107/41/8 37/174/8 35/74/8
f 106/29/3 29/80/3 34/76/3
f 124/27/33 41/67/33 80/141/33
f 119/3/1 38/165/1 49/107/1
f 48/86/3 116/88/3 33/78/3
f 130/175/2 72/176/2 16/177/2
f 125/178/4 71/179/4 13/180/4
f 135/119/4 67/181/4 4/117/4
f 134/136/2 147/155/2 146/116/2
f 140/133/27 157/139/27 148/166/27
f 156/140/27 127/118/27 145/182/27
f 8/128/27 126/183/27 58/184/27
f 129/185/4 45/186/4 15/187/4
f 126/183/2 42/188/2 58/184/2
f 143/189/19 29/97/19 103/103/19
f 132/190/2 16/177/2 42/188/2
f 138/191/4 15/187/4 71/179/4
f 141/192/19 13/157/19 86/96/19
f 133/193/4 61/194/4 45/186/4
f 139/195/2 14/144/2 72/176/2
f 21/126/27 145/182/27 60/196/27
f 148/166/27 66/153/27 101/113/27
f 146/116/2 65/197/2 22/115/2
f 150/170/19 143/189/19 128/102/19
f 148/166/27 68/164/27 161/156/27
f 153/84/19 141/192/19 131/95/19
f 65/197/27 161/156/27 122/134/27
f 152/23/2 139/195/2 130/175/2
f 149/148/4 138/191/4 125/178/4
f 156/140/4 137/132/4 135/119/4
f 146/116/27 126/183/27 134/136/27
f 151/17/4 133/193/4 129/185/4
f 144/100/2 132/190/2 126/183/2
f 162/85/19 131/95/19 143/189/19
f 154/24/2 130/175/2 132/190/2
f 158/18/4 129/185/4 138/191/4
f 160/15/19 125/198/19 141/192/19
f 155/12/4 127/199/4 133/193/4
f 159/4/2 128/200/2 139/195/2
f 47/1/1 7/106/1 118/2/1
f 159/4/2 70/201/2 26/5/2
f 45/7/3 61/202/3 81/8/3
f 43/10/4 60/203/4 145/11/4
f 82/13/5 27/204/5 149/14/5
f 73/16/4 28/101/4 151/17/4
f 6/19/2 18/172/2 77/20/2
f 44/22/2 25/149/2 152/23/2
f 78/25/6 24/64/6 115/26/6
f 6/19/3 14/144/3 103/28/3
f 2/30/3 13/157/3 71/31/3
f 9/33/3 16/171/3 72/34/3
f 12/35/3 15/145/3 88/36/3
f 2/30/7 17/143/7 91/38/7
f 9/33/8 20/146/8 109/40/8
f 74/32/4 12/35/4 19/42/4
f 51/44/9 59/98/9 104/45/9
f 55/47/34 60/158/34 43/48/34
f 11/50/35 25/65/35 44/51/35
f 5/56/36 26/173/36 70/57/36
f 1/58/14 27/142/14 82/59/14
f 23/54/37 28/53/37 73/61/37
f 85/63/16 83/94/16 10/55/16
f 113/66/16 39/92/16 41/67/16
f 114/68/38 40/159/38 32/69/38
f 93/71/9 56/108/9 62/72/9
f 35/74/8 37/174/8 92/75/8
f 34/76/7 36/160/7 108/77/7
f 107/41/3 35/74/3 33/78/3
f 89/39/3 34/76/3 29/80/3
f 102/82/39 80/141/39 41/67/39
f 112/83/5 32/161/5 153/84/5
f 48/86/3 63/162/3 111/87/3
f 52/89/1 50/111/1 96/90/1
f 39/92/18 57/109/18 94/93/18
f 131/95/19 141/192/19 86/96/19
f 51/44/40 53/52/40 44/51/40
f 10/55/41 54/49/41 43/48/41
f 59/99/2 44/22/2 154/24/2
f 28/101/4 43/10/4 155/12/4
f 128/102/19 143/189/19 103/103/19
f 11/50/18 53/52/18 117/105/18
f 7/106/22 51/44/22 110/46/22
f 49/107/23 38/165/23 56/108/23
f 47/1/24 53/52/24 51/44/24
f 49/107/42 57/109/42 117/105/42
f 46/110/23 3/154/23 55/47/23
f 50/111/22 56/108/22 93/71/22
f 52/89/24 57/109/24 56/108/24
f 46/110/42 54/49/42 94/93/42
f 30/112/26 68/164/26 101/113/26
f 22/115/27 59/99/27 144/100/27
f 4/117/27 61/152/27 127/118/27
f 120/120/27 30/112/27 62/121/27
f 98/123/27 31/137/27 63/124/27
f 21/126/27 60/196/27 87/127/27
f 8/128/27 58/184/27 111/129/27
f 100/131/27 67/181/27 137/132/27
f 22/115/26 65/197/26 122/134/26
f 8/128/2 64/163/2 136/135/2
f 31/137/3 69/150/3 123/138/3
f 4/117/3 67/181/3 100/131/3
f 21/126/4 66/153/4 157/139/4
f 84/60/28 40/159/28 80/141/28
f 1/58/15 79/62/15 73/61/15
f 24/64/13 78/25/13 70/57/13
f 2/30/4 74/32/4 76/43/4
f 6/19/3 75/21/3 72/34/3
f 12/35/3 74/32/3 71/31/3
f 5/56/6 78/25/6 124/27/6
f 75/21/2 77/20/2 20/146/2
f 27/147/4 73/16/4 158/18/4
f 25/149/2 70/201/2 159/4/2
f 84/60/6 102/82/6 79/62/6
f 98/123/3 100/131/3 69/150/3
f 136/135/27 64/163/27 123/138/27
f 99/114/27 87/127/27 62/121/27
f 4/117/27 98/123/27 81/125/27
f 99/114/26 101/113/26 66/153/26
f 52/89/25 97/91/25 94/93/25
f 3/154/22 96/90/22 93/71/22
f 147/155/27 136/135/27 142/151/27
f 83/94/18 94/93/18 54/49/18
f 97/91/1 96/90/1 3/154/1
f 102/82/6 85/63/6 23/54/6
f 2/30/3 89/39/3 86/81/3
f 90/37/8 92/75/8 19/42/8
f 55/47/9 93/71/9 87/73/9
f 41/67/16 39/92/16 83/94/16
f 84/60/14 82/59/14 32/69/14
f 89/39/7 91/38/7 36/160/7
f 90/37/3 88/36/3 33/78/3
f 32/161/5 82/13/5 160/15/5
f 95/9/3 81/8/3 63/162/3
f 100/131/27 140/133/27 69/150/27
f 140/133/27 142/151/27 69/150/27
f 114/68/32 124/27/32 80/141/32
f 36/160/3 91/38/3 37/174/3
f 91/38/3 17/143/3 76/43/3
f 76/43/3 19/42/3 92/75/3
f 91/38/3 76/43/3 92/75/3
f 36/160/3 37/174/3 109/40/3
f 77/20/3 18/172/3 108/77/3
f 108/77/3 36/160/3 109/40/3
f 92/75/3 37/174/3 91/38/3
f 109/40/3 20/146/3 77/20/3
f 121/130/3 123/138/3 64/163/3
f 120/120/26 122/134/26 68/164/26
f 121/130/27 111/129/27 63/124/27
f 22/115/27 120/120/27 104/122/27
f 47/1/25 119/3/25 117/105/25
f 38/165/22 118/2/22 110/46/22
f 113/66/18 117/105/18 57/109/18
f 161/156/27 142/151/27 140/133/27
f 116/88/3 111/87/3 58/167/3
f 26/169/5 112/83/5 162/85/5
f 9/33/3 107/41/3 105/79/3
f 106/29/7 108/77/7 18/172/7
f 5/56/14 114/68/14 112/70/14
f 11/50/16 113/66/16 115/26/16
f 110/46/9 104/45/9 62/72/9
f 107/41/8 109/40/8 37/174/8
f 106/29/3 103/28/3 29/80/3
f 124/27/6 115/26/6 41/67/6
f 119/3/1 118/2/1 38/165/1
f 16/171/3 105/79/3 42/168/3
f 105/79/3 33/78/3 116/88/3
f 42/168/3 105/79/3 116/88/3
f 88/36/3 15/145/3 45/7/3
f 33/78/3 88/36/3 95/9/3
f 88/36/3 45/7/3 95/9/3
f 95/9/3 48/86/3 33/78/3
f 130/175/2 139/195/2 72/176/2
f 125/178/4 138/191/4 71/179/4
f 135/119/4 137/132/4 67/181/4
f 134/136/2 136/135/2 147/155/2
f 140/133/27 137/132/27 157/139/27
f 156/140/27 135/119/27 127/118/27
f 8/128/27 134/136/27 126/183/27
f 129/185/4 133/193/4 45/186/4
f 126/183/2 132/190/2 42/188/2
f 143/189/19 131/95/19 29/97/19
f 132/190/2 130/175/2 16/177/2
f 138/191/4 129/185/4 15/187/4
f 141/192/19 125/198/19 13/157/19
f 133/193/4 127/199/4 61/194/4
f 139/195/2 128/200/2 14/144/2
f 21/126/27 156/140/27 145/182/27
f 148/166/27 157/139/27 66/153/27
f 146/116/2 147/155/2 65/197/2
f 150/170/19 162/85/19 143/189/19
f 101/113/27 68/164/27 148/166/27
f 68/164/27 122/134/27 161/156/27
f 153/84/19 160/15/19 141/192/19
f 65/197/27 147/155/27 161/156/27
f 152/23/2 159/4/2 139/195/2
f 149/148/4 158/18/4 138/191/4
f 156/140/4 157/139/4 137/132/4
f 146/116/27 144/100/27 126/183/27
f 151/17/4 155/12/4 133/193/4
f 144/100/2 154/24/2 132/190/2
f 162/85/19 153/84/19 131/95/19
f 154/24/2 152/23/2 130/175/2
f 158/18/4 151/17/4 129/185/4
f 160/15/19 149/14/19 125/198/19
f 155/12/4 145/11/4 127/199/4
f 159/4/2 150/6/2 128/200/2
